<svg width="56" height="51" viewBox="0 0 56 51" fill="none" xmlns="http://www.w3.org/2000/svg">
<path opacity="0.2" d="M0.516407 50.4L9.31641 13.6L10.9164 22C7.84974 22 5.24974 21.0667 3.11641 19.2C1.11641 17.2 0.116407 14.6 0.116407 11.4C0.116407 8.2 1.11641 5.6 3.11641 3.59999C5.24974 1.59999 7.78307 0.599992 10.7164 0.599992C13.7831 0.599992 16.2497 1.66666 18.1164 3.8C20.1164 5.8 21.1164 8.33333 21.1164 11.4C21.1164 12.4667 21.0497 13.5333 20.9164 14.6C20.7831 15.6667 20.5164 16.8667 20.1164 18.2C19.8497 19.4 19.3831 20.9333 18.7164 22.8L10.1164 50.4H0.516407ZM34.5164 50.4L43.3164 13.6L44.9164 22C41.8497 22 39.2497 21.0667 37.1164 19.2C35.1164 17.2 34.1164 14.6 34.1164 11.4C34.1164 8.2 35.1164 5.6 37.1164 3.59999C39.2497 1.59999 41.7831 0.599992 44.7164 0.599992C47.7831 0.599992 50.2497 1.66666 52.1164 3.8C54.1164 5.8 55.1164 8.33333 55.1164 11.4C55.1164 12.4667 55.0497 13.5333 54.9164 14.6C54.7831 15.6667 54.5164 16.8667 54.1164 18.2C53.8497 19.4 53.3831 20.9333 52.7164 22.8L44.1164 50.4H34.5164Z" fill="#DCDCDC"/>
</svg>
