<svg width="68" height="73" viewBox="0 0 68 73" fill="none" xmlns="http://www.w3.org/2000/svg">
<path fill-rule="evenodd" clip-rule="evenodd" d="M48.7675 72.2169L48.7675 0.914062L67.9302 0.914062L67.9302 72.2169L48.7675 72.2169Z" fill="url(#paint0_linear_241_2707)"/>
<path fill-rule="evenodd" clip-rule="evenodd" d="M19.5777 0.913956L19.5777 72.2168L0.415039 72.2168L0.41504 0.913956L19.5777 0.913956Z" fill="url(#paint1_linear_241_2707)"/>
<path fill-rule="evenodd" clip-rule="evenodd" d="M67.9302 0.914062C67.9302 15.2832 65.45 27.8436 56.0709 36.8631C49.4326 43.2467 41.7627 44.8529 36.633 45.9271C36.4631 45.9626 36.296 45.9976 36.1318 46.0322C30.7311 47.1691 28.0594 47.9049 25.6876 50.1111C23.1283 52.8534 21.8132 55.1211 20.9822 57.8588C20.0423 60.9554 19.5572 65.1926 19.5572 72.2169H0.394531C0.394531 64.6328 0.873625 58.1311 2.64567 52.2931C4.50858 46.1556 7.61388 41.3318 11.9342 36.7641L12.0901 36.5992L12.2537 36.4419C18.8843 30.0654 26.5502 28.4604 31.6753 27.3873C31.8479 27.3512 32.0177 27.3156 32.1844 27.2805C37.695 26.1205 40.3708 25.3755 42.7883 23.0508C46.43 19.5488 48.7676 13.6748 48.7676 0.914062H67.9302Z" fill="#FEFBF9"/>
<g style="mix-blend-mode:multiply">
<path fill-rule="evenodd" clip-rule="evenodd" d="M36.633 45.9271C39.9408 45.2344 44.3049 44.3205 48.7676 42.0471V72.2169H67.9302V0.914062H48.7676C48.7676 13.6748 46.43 19.5488 42.7883 23.0508C40.3708 25.3755 37.695 26.1205 32.1844 27.2805C32.0177 27.3156 31.8479 27.3512 31.6753 27.3873C28.3773 28.0778 24.0272 28.9886 19.5779 31.2494V0.914062H0.415245L0.415245 69.6145C0.401009 70.4678 0.394531 71.335 0.394531 72.2169H0.415244H19.5572H19.5779V69.8162C19.6796 64.1966 20.1546 60.5855 20.9822 57.8588C21.8132 55.1211 23.1283 52.8534 25.6876 50.1111C28.0594 47.9049 30.7311 47.1691 36.1318 46.0322C36.296 45.9976 36.4631 45.9626 36.633 45.9271Z" fill="url(#paint2_linear_241_2707)"/>
</g>
<defs>
<linearGradient id="paint0_linear_241_2707" x1="48.6796" y1="0.914062" x2="48.6796" y2="72.2169" gradientUnits="userSpaceOnUse">
<stop offset="0.22" stop-color="#616161"/>
<stop offset="0.78" stop-color="white"/>
</linearGradient>
<linearGradient id="paint1_linear_241_2707" x1="19.6656" y1="72.2168" x2="19.6656" y2="0.913956" gradientUnits="userSpaceOnUse">
<stop offset="0.22" stop-color="#616161"/>
<stop offset="0.78" stop-color="white"/>
</linearGradient>
<linearGradient id="paint2_linear_241_2707" x1="0.394531" y1="0.914062" x2="65.7555" y2="72.5883" gradientUnits="userSpaceOnUse">
<stop stop-color="#5D2B3B"/>
<stop offset="0.33" stop-color="#2F1C46"/>
<stop offset="0.66" stop-color="#1B1F38"/>
<stop offset="1" stop-color="#0B102C"/>
</linearGradient>
</defs>
</svg>
