<svg width="56" height="51" viewBox="0 0 56 51" fill="none" xmlns="http://www.w3.org/2000/svg">
<path opacity="0.2" d="M21.5164 0.599991L12.7164 37.6L11.1164 29C14.3164 29 16.9164 30 18.9164 32C20.9164 33.8667 21.9164 36.4 21.9164 39.6C21.9164 42.8 20.9164 45.4 18.9164 47.4C16.9164 49.4 14.4497 50.4 11.5164 50.4C8.31641 50.4 5.71641 49.4 3.71641 47.4C1.84974 45.2667 0.916407 42.6667 0.916407 39.6C0.916407 38.4 0.983073 37.3333 1.11641 36.4C1.24974 35.4667 1.51641 34.3333 1.91641 33C2.31641 31.6667 2.84974 30.0667 3.51641 28.2L11.9164 0.599991H21.5164ZM55.5164 0.599991L46.7164 37.6L45.1164 29C48.3164 29 50.9164 30 52.9164 32C54.9164 33.8667 55.9164 36.4 55.9164 39.6C55.9164 42.8 54.9164 45.4 52.9164 47.4C50.9164 49.4 48.4497 50.4 45.5164 50.4C42.3164 50.4 39.7164 49.4 37.7164 47.4C35.8497 45.2667 34.9164 42.6667 34.9164 39.6C34.9164 38.4 34.9831 37.3333 35.1164 36.4C35.2497 35.4667 35.5164 34.3333 35.9164 33C36.3164 31.6667 36.8497 30.0667 37.5164 28.2L45.9164 0.599991H55.5164Z" fill="#DCDCDC"/>
</svg>
