<svg width="24" height="24" viewBox="0 0 24 24" fill="none" xmlns="http://www.w3.org/2000/svg">
<g id="icons 1:1">
<path id="Vector" d="M5.5 12.9795L12.6401 5.91217C13.0102 5.53808 13.4516 5.24033 13.9387 5.03617C14.4258 4.832 14.9489 4.72546 15.4779 4.72271C16.0068 4.71996 16.5311 4.82106 17.0203 5.02015C17.5096 5.21925 17.9541 5.51239 18.3281 5.88261C18.7021 6.25284 18.9983 6.6928 19.1994 7.17705C19.4006 7.6613 19.5027 8.18022 19.4999 8.70379C19.4972 9.22736 19.3895 9.74519 19.1833 10.2273C18.977 10.7095 18.6762 11.1463 18.2982 11.5126L11.6289 18.1125C11.2158 18.5081 10.6621 18.7273 10.0872 18.7226C9.51229 18.7179 8.96229 18.4898 8.55578 18.0874C8.14926 17.685 7.91878 17.1406 7.91405 16.5716C7.90931 16.0026 8.13069 15.4545 8.53046 15.0455L14.9292 8.71127" stroke="#DEE4E8" stroke-linecap="round" stroke-linejoin="round"/>
</g>
</svg>
