<svg width="24" height="24" viewBox="0 0 24 24" fill="none" xmlns="http://www.w3.org/2000/svg">
<g clip-path="url(#clip0_6_2)">
<path d="M23.6409 14.9039C22.0381 21.3332 15.5262 25.246 9.09607 23.6428C2.66863 22.0399 -1.24415 15.5276 0.359422 9.09875C1.96158 2.6687 8.47348 -1.24438 14.9016 0.358487C21.3313 1.96135 25.244 8.47433 23.6409 14.9039Z" fill="#F7931A"/>
<path d="M17.2921 10.2908C17.531 8.69371 16.315 7.83522 14.6523 7.26247L15.1917 5.09904L13.8748 4.77089L13.3497 6.87736C13.0034 6.79101 12.6479 6.70965 12.2945 6.62899L12.8234 4.50861L11.5072 4.18046L10.9676 6.34319C10.6811 6.27796 10.3997 6.21349 10.1267 6.14556L10.1282 6.13875L8.31206 5.68524L7.9618 7.09186C7.9618 7.09186 8.93881 7.31583 8.91827 7.3296C9.45156 7.46266 9.54799 7.81574 9.53196 8.09555L8.91756 10.5602C8.95427 10.5695 9.00192 10.583 9.05443 10.6041C9.01053 10.5932 8.96373 10.5813 8.91523 10.5697L8.05406 14.0224C7.98883 14.1844 7.82344 14.4275 7.4506 14.3352C7.4638 14.3543 6.49341 14.0963 6.49341 14.0963L5.83957 15.6038L7.55337 16.031C7.87222 16.111 8.18464 16.1946 8.49227 16.2733L7.94733 18.4616L9.26274 18.7897L9.80246 16.6247C10.1618 16.7222 10.5105 16.8122 10.852 16.8971L10.3141 19.0518L11.6311 19.38L12.176 17.1959C14.4217 17.6209 16.1103 17.4496 16.821 15.4183C17.3937 13.7829 16.7925 12.8396 15.611 12.2245C16.4716 12.0261 17.1193 11.46 17.2921 10.2908ZM14.2831 14.5101C13.8761 16.1455 11.1227 15.2615 10.2299 15.0397L10.9532 12.1407C11.8458 12.3636 14.7084 12.8046 14.2831 14.5101ZM14.6904 10.2671C14.3191 11.7546 12.0274 10.9989 11.284 10.8136L11.9397 8.18435C12.6831 8.36964 15.077 8.71553 14.6904 10.2671Z" fill="white"/>
</g>
<defs>
<clipPath id="clip0_6_2">
<rect width="24" height="24" fill="white"/>
</clipPath>
</defs>
</svg>
