<svg width="14" height="20" viewBox="0 0 14 20" fill="none" xmlns="http://www.w3.org/2000/svg">
<g id="Group 21274">
<path id="Vector" d="M0.5 12.4919C0.5 8.46785 6.09722 5.35246 4.83333 0.722656C7.8125 0.722656 13.5 4.8765 13.5 12.4919C13.5 14.1444 12.8152 15.7292 11.5962 16.8977C10.3772 18.0662 8.72391 18.7227 7 18.7227C5.27609 18.7227 3.62279 18.0662 2.40381 16.8977C1.18482 15.7292 0.5 14.1444 0.5 12.4919Z" stroke="#DEE4E8" stroke-linecap="round" stroke-linejoin="round"/>
<path id="Vector_2" d="M9.88764 14.2778C9.88764 16.8827 8.4432 17.8889 6.99875 17.8889C5.55431 17.8889 4.10986 16.8827 4.10986 14.2778C4.10986 11.6728 5.91542 10.3958 5.55431 8.5C7.45014 8.5 9.88764 11.6728 9.88764 14.2778Z" stroke="#DEE4E8" stroke-linecap="round" stroke-linejoin="round"/>
</g>
</svg>
