<svg width="24" height="25" viewBox="0 0 24 25" fill="none" xmlns="http://www.w3.org/2000/svg">
<g id="icons 1:1">
<path id="Vector" d="M5.5 13.4795L8.75686 10.2227M14.9292 9.21127L13.3295 10.7948M14.5187 15.7227L11.6289 18.6125C11.2158 19.0081 10.6621 19.2273 10.0872 19.2226C9.51229 19.2179 8.96229 18.9898 8.55577 18.5874C8.14926 18.185 7.91878 17.6406 7.91405 17.0716C7.90931 16.5026 8.13069 15.9545 8.53046 15.5455L11.3534 12.7227M16.6309 13.6626L18.2982 12.0126C18.6762 11.6463 18.977 11.2095 19.1833 10.7273C19.3895 10.2452 19.4972 9.72736 19.4999 9.20379C19.5027 8.68022 19.4006 8.1613 19.1994 7.67705C18.9983 7.1928 18.7021 6.75284 18.3281 6.38261C17.9541 6.01239 17.5096 5.71925 17.0203 5.52015C16.5311 5.32106 16.0068 5.21996 15.4779 5.22271C14.9489 5.22546 14.4258 5.332 13.9387 5.53617C13.4516 5.74033 13.0102 6.03808 12.6401 6.41217L10.811 8.22266" stroke="#DEE4E8" stroke-linecap="round" stroke-linejoin="round"/>
<path id="Vector 5" d="M7.5 5.22266L19.5 17.2227" stroke="#DEE4E8" stroke-linecap="round"/>
</g>
</svg>
