<svg width="24" height="24" viewBox="0 0 24 24" fill="none" xmlns="http://www.w3.org/2000/svg">
<g id="icons 1:1">
<path id="Vector" d="M18.9832 3.27148H5.0168C4.05262 3.27148 3.271 4.05311 3.271 5.01729V8.50889C3.271 9.47307 4.05262 10.2547 5.0168 10.2547H18.9832C19.9474 10.2547 20.729 9.47307 20.729 8.50889V5.01729C20.729 4.05311 19.9474 3.27148 18.9832 3.27148Z" stroke="#DEE4E8" stroke-linecap="round" stroke-linejoin="round"/>
<path id="Vector_2" d="M18.9832 13.7461H5.0168C4.05262 13.7461 3.271 14.5277 3.271 15.4919V18.9835C3.271 19.9477 4.05262 20.7293 5.0168 20.7293H18.9832C19.9474 20.7293 20.729 19.9477 20.729 18.9835V15.4919C20.729 14.5277 19.9474 13.7461 18.9832 13.7461Z" stroke="#DEE4E8" stroke-linecap="round" stroke-linejoin="round"/>
<path id="Vector_3" d="M6.7627 6.7627H6.77153" stroke="#DEE4E8" stroke-linecap="round" stroke-linejoin="round"/>
<path id="Vector_4" d="M6.7627 17.2373H6.77153" stroke="#DEE4E8" stroke-linecap="round" stroke-linejoin="round"/>
</g>
</svg>
