<svg width="18" height="19" viewBox="0 0 18 19" fill="none" xmlns="http://www.w3.org/2000/svg">
<g id="&#240;&#159;&#166;&#134; icon &#34;coin&#34;">
<path id="Vector" d="M9 17.7227C13.6944 17.7227 17.5 13.917 17.5 9.22266C17.5 4.52823 13.6944 0.722656 9 0.722656C4.30558 0.722656 0.5 4.52823 0.5 9.22266C0.5 13.917 4.30558 17.7227 9 17.7227Z" stroke="white" stroke-width="0.991427" stroke-linecap="round" stroke-linejoin="round"/>
<path id="Vector_2" d="M11.5504 6.24727C10.9682 5.66502 9.94283 5.26003 9.00044 5.23468M9.00044 5.23468C7.8792 5.2045 6.87544 5.71175 6.87544 7.09727C6.87544 9.64726 11.5504 8.37226 11.5504 10.9223C11.5504 12.3766 10.3062 13.0015 9.00044 12.9546M9.00044 5.23468V3.69727M6.45044 11.7723C6.99825 12.5027 8.01682 12.9193 9.00044 12.9546M9.00044 12.9546V14.7473" stroke="white" stroke-width="0.991427" stroke-linecap="round" stroke-linejoin="round"/>
</g>
</svg>
