<svg width="24" height="24" viewBox="0 0 24 24" fill="none" xmlns="http://www.w3.org/2000/svg">
<g id="icons 1:1">
<path id="Vector" d="M11.3059 6.80371H6.72489C6.37775 6.80371 6.04484 6.94161 5.79938 7.18707C5.55391 7.43253 5.41602 7.76545 5.41602 8.11258V17.2747C5.41602 17.6218 5.55391 17.9547 5.79938 18.2002C6.04484 18.4457 6.37775 18.5836 6.72489 18.5836H15.887C16.2341 18.5836 16.567 18.4457 16.8125 18.2002C17.058 17.9547 17.1959 17.6218 17.1959 17.2747V12.6936" stroke="#DEE4E8" stroke-linecap="round" stroke-linejoin="round"/>
<path id="Vector_2" d="M16.2141 5.82263C16.4745 5.56228 16.8276 5.41602 17.1958 5.41602C17.564 5.41602 17.9171 5.56228 18.1774 5.82263C18.4378 6.08298 18.584 6.43609 18.584 6.80428C18.584 7.17248 18.4378 7.52559 18.1774 7.78594L11.9603 14.0031L9.34253 14.6575L9.99697 12.0398L16.2141 5.82263Z" stroke="#DEE4E8" stroke-linecap="round" stroke-linejoin="round"/>
</g>
</svg>
