<svg width="24" height="24" viewBox="0 0 24 24" fill="none" xmlns="http://www.w3.org/2000/svg">
<path d="M3.99715 16.832C3.67892 17.1501 3.5001 17.5816 3.5 18.0316V19.8743C3.5 20.0993 3.58938 20.3151 3.74848 20.4742C3.90759 20.6333 4.12337 20.7227 4.34838 20.7227H6.89351C7.11851 20.7227 7.3343 20.6333 7.4934 20.4742C7.65251 20.3151 7.74189 20.0993 7.74189 19.8743V19.0259C7.74189 18.8009 7.83127 18.5851 7.99037 18.426C8.14947 18.2669 8.36526 18.1775 8.59027 18.1775H9.43864C9.66365 18.1775 9.87944 18.0881 10.0385 17.929C10.1976 17.7699 10.287 17.5541 10.287 17.3291V16.4808C10.287 16.2558 10.3764 16.04 10.5355 15.8809C10.6946 15.7218 10.9104 15.6324 11.1354 15.6324H11.2813C11.7313 15.6323 12.1628 15.4535 12.4809 15.1352L13.1715 14.4447C14.3506 14.8554 15.6342 14.8538 16.8123 14.4402C17.9904 14.0266 18.9933 13.2254 19.6568 12.1677C20.3204 11.11 20.6053 9.85848 20.4651 8.61778C20.3249 7.37708 19.7677 6.2207 18.8848 5.33781C18.002 4.45492 16.8456 3.89779 15.6049 3.75755C14.3642 3.61732 13.1126 3.90229 12.0549 4.56585C10.9973 5.2294 10.1961 6.23226 9.78245 7.41036C9.36883 8.58845 9.36726 9.87205 9.77799 11.0512L3.99715 16.832Z" stroke="#DEE4E8" stroke-linecap="round" stroke-linejoin="round"/>
<path d="M16 8.72266C16.2761 8.72266 16.5 8.4988 16.5 8.22266C16.5 7.94651 16.2761 7.72266 16 7.72266C15.7239 7.72266 15.5 7.94651 15.5 8.22266C15.5 8.4988 15.7239 8.72266 16 8.72266Z" stroke="#DEE4E8" stroke-linecap="round" stroke-linejoin="round"/>
</svg>
