<svg width="25" height="25" viewBox="0 0 25 25" fill="none" xmlns="http://www.w3.org/2000/svg">
<g id="Type=Moon">
<path id="Vector" d="M21 13.2658C20.8511 14.8768 20.2465 16.4122 19.2569 17.6921C18.2672 18.9721 16.9336 19.9437 15.4119 20.4934C13.8902 21.043 12.2434 21.1479 10.6643 20.7958C9.08513 20.4437 7.63893 19.6492 6.49489 18.5051C5.35084 17.3611 4.55628 15.9149 4.20417 14.3357C3.85206 12.7566 3.95697 11.1098 4.50661 9.58814C5.05626 8.06644 6.02791 6.73275 7.30788 5.74313C8.58784 4.75351 10.1232 4.14888 11.7342 4C10.791 5.27607 10.3371 6.8483 10.4551 8.43073C10.5731 10.0132 11.2552 11.5007 12.3773 12.6227C13.4993 13.7448 14.9868 14.4269 16.5693 14.5449C18.1517 14.6629 19.7239 14.209 21 13.2658Z" stroke="#DEE4E8" stroke-linecap="round" stroke-linejoin="round"/>
</g>
</svg>
