<svg width="25" height="25" viewBox="0 0 25 25" fill="none" xmlns="http://www.w3.org/2000/svg">
<g id="Group 21277">
<path id="Vector" d="M22.4998 16.8333C21.7934 18.5079 20.6884 19.9836 19.2814 21.1314C17.8745 22.2791 16.2085 23.0639 14.4291 23.4171C12.6497 23.7704 10.8111 23.6813 9.07394 23.1578C7.3368 22.6342 5.75405 21.6921 4.46408 20.4138C3.1741 19.1355 2.21618 17.5599 1.67405 15.8247C1.13192 14.0896 1.0221 12.2477 1.35418 10.4602C1.68626 8.67273 2.45014 6.99397 3.57903 5.57073C4.70792 4.1475 6.16744 3.02312 7.83001 2.2959" stroke="#DEE4E8" stroke-width="1.33333" stroke-linecap="round" stroke-linejoin="round"/>
<path id="Vector_2" d="M23.8332 12.9629C23.8332 11.387 23.5573 9.8266 23.0212 8.37069C22.4852 6.91478 21.6995 5.59191 20.709 4.47761C19.7185 3.36331 18.5426 2.47939 17.2485 1.87634C15.9543 1.27328 14.5673 0.962891 13.1665 0.962891V12.9629H23.8332Z" stroke="#DEE4E8" stroke-width="1.33333" stroke-linecap="round" stroke-linejoin="round"/>
</g>
</svg>
