<svg width="24" height="24" viewBox="0 0 24 24" fill="none" xmlns="http://www.w3.org/2000/svg">
<g id="icons 1:1">
<path id="Vector" d="M20.1862 5.99023V10.4757H15.7007" stroke="#DEE4E8" stroke-linecap="round" stroke-linejoin="round"/>
<path id="Vector_2" d="M3.7395 17.9513V13.4658H8.22499" stroke="#DEE4E8" stroke-linecap="round" stroke-linejoin="round"/>
<path id="Vector_3" d="M5.61593 9.72786C5.99508 8.65641 6.63947 7.69848 7.48897 6.94343C8.33847 6.18839 9.3654 5.66084 10.4739 5.41002C11.5825 5.1592 12.7365 5.19329 13.8282 5.50909C14.92 5.82489 15.914 6.41212 16.7175 7.21599L20.1863 10.4754M3.7395 13.4658L7.20828 16.7252C8.01174 17.5291 9.00574 18.1163 10.0975 18.4321C11.1893 18.7479 12.3433 18.782 13.4519 18.5312C14.5604 18.2804 15.5873 17.7528 16.4368 16.9978C17.2863 16.2427 17.9307 15.2848 18.3099 14.2133" stroke="#DEE4E8" stroke-linecap="round" stroke-linejoin="round"/>
</g>
</svg>
