<svg width="25" height="25" viewBox="0 0 25 25" fill="none" xmlns="http://www.w3.org/2000/svg">
<g id="Type=Rocket">
<path id="Vector" d="M10.5744 17.2576L16.6958 14.0509C17.5559 13.6005 18.2939 12.9482 18.8464 12.1499C19.3989 11.3515 19.7494 10.431 19.8679 9.46741L20.3805 5.29194C20.3917 5.20143 20.3821 5.10956 20.3524 5.02332C20.3227 4.93708 20.2738 4.85873 20.2093 4.79424C20.1448 4.72975 20.0665 4.68082 19.9802 4.65115C19.894 4.62148 19.8021 4.61186 19.7116 4.62302L15.5361 5.13567C14.5725 5.25412 13.652 5.60464 12.8537 6.15715C12.0553 6.70965 11.403 7.44764 10.9527 8.30775L7.74593 14.4292M10.5744 17.2576L7.74593 14.4292M10.5744 17.2576L11.3383 20.85C11.3383 20.85 15.6575 19.3276 14.9504 15.0849M7.74593 14.4292L4.21039 13.7221C4.21039 13.7221 5.6246 9.47943 9.86725 10.1865M5.6246 16.5505C4.21039 17.9647 4.9175 20.086 4.9175 20.086C4.9175 20.086 7.03882 20.7931 8.45303 19.3789" stroke="#DEE4E8" stroke-linecap="round" stroke-linejoin="round"/>
<path id="Vector_2" d="M13.609 11.3947C13.2888 11.0744 13.1089 10.6401 13.1089 10.1873C13.1089 9.7344 13.2888 9.30008 13.609 8.97986C13.9292 8.65964 14.3635 8.47974 14.8164 8.47974C15.2693 8.47974 15.7036 8.65964 16.0238 8.97986C16.344 9.30008 16.5239 9.7344 16.5239 10.1873C16.5239 10.6401 16.344 11.0744 16.0238 11.3947C15.7036 11.7149 15.2693 11.8948 14.8164 11.8948C14.3635 11.8948 13.9292 11.7149 13.609 11.3947Z" stroke="#DEE4E8" stroke-linecap="round" stroke-linejoin="round"/>
</g>
</svg>
