<svg width="25" height="25" viewBox="0 0 25 25" fill="none" xmlns="http://www.w3.org/2000/svg">
<g id="Group 21278">
<path id="Vector" d="M12.5011 15.3898C14.2081 15.3898 15.592 14.006 15.592 12.2989C15.592 10.5919 14.2081 9.20801 12.5011 9.20801C10.794 9.20801 9.41016 10.5919 9.41016 12.2989C9.41016 14.006 10.794 15.3898 12.5011 15.3898Z" stroke="#FEFBF9" stroke-opacity="0.66" stroke-linecap="round" stroke-linejoin="round"/>
<path id="Vector_2" d="M20.1243 15.3881C19.9872 15.6989 19.9463 16.0436 20.0069 16.3778C20.0675 16.712 20.2268 17.0204 20.4643 17.2633L20.5261 17.3251C20.7177 17.5165 20.8697 17.7437 20.9734 17.9939C21.0771 18.244 21.1305 18.5122 21.1305 18.783C21.1305 19.0538 21.0771 19.3219 20.9734 19.572C20.8697 19.8222 20.7177 20.0495 20.5261 20.2408C20.3348 20.4324 20.1075 20.5844 19.8574 20.6881C19.6072 20.7918 19.3391 20.8452 19.0683 20.8452C18.7975 20.8452 18.5293 20.7918 18.2792 20.6881C18.029 20.5844 17.8018 20.4324 17.6104 20.2408L17.5486 20.179C17.3057 19.9415 16.9973 19.7822 16.6631 19.7216C16.3289 19.661 15.9842 19.7019 15.6734 19.839C15.3687 19.9696 15.1088 20.1865 14.9257 20.4629C14.7427 20.7393 14.6444 21.0632 14.6431 21.3948V21.5699C14.6431 22.1164 14.426 22.6406 14.0396 23.027C13.6531 23.4134 13.129 23.6305 12.5825 23.6305C12.036 23.6305 11.5119 23.4134 11.1254 23.027C10.739 22.6406 10.5219 22.1164 10.5219 21.5699V21.4772C10.5139 21.1362 10.4035 20.8054 10.2051 20.528C10.0066 20.2505 9.72932 20.0392 9.40917 19.9214C9.09842 19.7843 8.7537 19.7434 8.41948 19.804C8.08525 19.8646 7.77684 20.0239 7.53402 20.2614L7.4722 20.3233C7.28083 20.5149 7.05357 20.6668 6.80341 20.7705C6.55326 20.8742 6.28512 20.9276 6.01432 20.9276C5.74353 20.9276 5.47539 20.8742 5.22523 20.7705C4.97508 20.6668 4.74782 20.5149 4.55645 20.3233C4.36486 20.1319 4.21287 19.9046 4.10917 19.6545C4.00547 19.4043 3.9521 19.1362 3.9521 18.8654C3.9521 18.5946 4.00547 18.3264 4.10917 18.0763C4.21287 17.8261 4.36486 17.5989 4.55645 17.4075L4.61826 17.3457C4.85579 17.1029 5.01512 16.7945 5.07572 16.4602C5.13632 16.126 5.09541 15.7813 4.95826 15.4705C4.82766 15.1658 4.6108 14.9059 4.33438 14.7229C4.05796 14.5398 3.73404 14.4416 3.40251 14.4402H3.22735C2.68085 14.4402 2.15672 14.2231 1.77029 13.8367C1.38385 13.4503 1.16675 12.9261 1.16675 12.3796C1.16675 11.8331 1.38385 11.309 1.77029 10.9226C2.15672 10.5361 2.68085 10.319 3.22735 10.319H3.32008C3.66111 10.311 3.99184 10.2007 4.2693 10.0022C4.54675 9.80377 4.75809 9.52644 4.87584 9.20629C5.01299 8.89554 5.0539 8.55082 4.9933 8.21659C4.9327 7.88237 4.77336 7.57396 4.53584 7.33114L4.47402 7.26932C4.28243 7.07795 4.13045 6.85069 4.02675 6.60053C3.92305 6.35038 3.86967 6.08224 3.86967 5.81144C3.86967 5.54065 3.92305 5.27251 4.02675 5.02235C4.13045 4.7722 4.28243 4.54494 4.47402 4.35356C4.6654 4.16198 4.89266 4.00999 5.14281 3.90629C5.39296 3.80259 5.6611 3.74922 5.9319 3.74922C6.2027 3.74922 6.47084 3.80259 6.72099 3.90629C6.97114 4.00999 7.1984 4.16198 7.38978 4.35356L7.4516 4.41538C7.69442 4.65291 8.00283 4.81224 8.33705 4.87284C8.67128 4.93344 9.01599 4.89253 9.32675 4.75538H9.40917C9.7139 4.62478 9.9738 4.40792 10.1569 4.1315C10.3399 3.85508 10.4382 3.53116 10.4395 3.19963V3.02447C10.4395 2.47797 10.6566 1.95384 11.043 1.5674C11.4295 1.18097 11.9536 0.963867 12.5001 0.963867C13.0466 0.963867 13.5707 1.18097 13.9572 1.5674C14.3436 1.95384 14.5607 2.47797 14.5607 3.02447V3.1172C14.562 3.44874 14.6602 3.77265 14.8433 4.04907C15.0264 4.32549 15.2863 4.54235 15.591 4.67296C15.9017 4.81011 16.2465 4.85102 16.5807 4.79042C16.9149 4.72982 17.2233 4.57048 17.4661 4.33296L17.528 4.27114C17.7193 4.07955 17.9466 3.92756 18.1968 3.82387C18.4469 3.72017 18.715 3.66679 18.9858 3.66679C19.2566 3.66679 19.5248 3.72017 19.7749 3.82387C20.0251 3.92756 20.2523 4.07955 20.4437 4.27114C20.6353 4.46252 20.7873 4.68978 20.891 4.93993C20.9947 5.19008 21.0481 5.45822 21.0481 5.72902C21.0481 5.99981 20.9947 6.26795 20.891 6.51811C20.7873 6.76826 20.6353 6.99552 20.4437 7.1869L20.3819 7.24872C20.1444 7.49154 19.985 7.79994 19.9244 8.13417C19.8638 8.4684 19.9048 8.81311 20.0419 9.12387V9.20629C20.1725 9.51102 20.3894 9.77092 20.6658 9.95398C20.9422 10.137 21.2661 10.2353 21.5977 10.2366H21.7728C22.3193 10.2366 22.8434 10.4537 23.2299 10.8401C23.6163 11.2266 23.8334 11.7507 23.8334 12.2972C23.8334 12.8437 23.6163 13.3678 23.2299 13.7543C22.8434 14.1407 22.3193 14.3578 21.7728 14.3578H21.6801C21.3485 14.3591 21.0246 14.4574 20.7482 14.6404C20.4718 14.8235 20.2549 15.0834 20.1243 15.3881Z" stroke="#FEFBF9" stroke-opacity="0.66" stroke-linecap="round" stroke-linejoin="round"/>
</g>
</svg>
