<svg width="20" height="21" viewBox="0 0 20 21" fill="none" xmlns="http://www.w3.org/2000/svg">
<g id="icons 1:1">
<path id="Star 1" d="M9.60389 4.41736C9.72862 4.03348 10.2717 4.03348 10.3964 4.41736L11.684 8.38013C11.7398 8.5518 11.8998 8.66804 12.0803 8.66804L16.247 8.66804C16.6506 8.66804 16.8184 9.18454 16.4919 9.42179L13.121 11.8709C12.9749 11.977 12.9138 12.1651 12.9696 12.3368L14.2572 16.2995C14.3819 16.6834 13.9426 17.0026 13.616 16.7654L10.2451 14.3163C10.099 14.2102 9.90129 14.2102 9.75525 14.3163L6.38432 16.7654C6.05777 17.0026 5.61841 16.6834 5.74314 16.2995L7.03072 12.3368C7.0865 12.1651 7.02539 11.977 6.87935 11.8709L3.50842 9.42179C3.18187 9.18454 3.3497 8.66804 3.75333 8.66804L7.92003 8.66804C8.10055 8.66804 8.26053 8.5518 8.31631 8.38013L9.60389 4.41736Z" fill="#DEE4E8" stroke="#DEE4E8" stroke-width="0.833333"/>
</g>
</svg>
