<svg width="20" height="21" viewBox="0 0 20 21" fill="none" xmlns="http://www.w3.org/2000/svg">
<g id="icons 1:1">
<path id="Star 1" d="M9.60389 4.41687C9.72862 4.03299 10.2717 4.03299 10.3964 4.41687L11.684 8.37964C11.7398 8.55131 11.8998 8.66755 12.0803 8.66755L16.247 8.66755C16.6506 8.66755 16.8184 9.18405 16.4919 9.4213L13.121 11.8704C12.9749 11.9765 12.9138 12.1646 12.9696 12.3363L14.2572 16.299C14.3819 16.6829 13.9426 17.0021 13.616 16.7649L10.2451 14.3158C10.099 14.2097 9.90129 14.2097 9.75525 14.3158L6.38432 16.7649C6.05777 17.0021 5.61841 16.6829 5.74314 16.299L7.03072 12.3363C7.0865 12.1646 7.02539 11.9765 6.87935 11.8704L3.50842 9.4213C3.18187 9.18405 3.3497 8.66755 3.75333 8.66755L7.92003 8.66755C8.10055 8.66755 8.26053 8.55131 8.31631 8.37964L9.60389 4.41687Z" stroke="#DEE4E8" stroke-width="0.833333"/>
</g>
</svg>
