<svg width="24" height="24" viewBox="0 0 24 24" fill="none" xmlns="http://www.w3.org/2000/svg">
<path d="M15.7725 10.6016H8.22751C7.63223 10.6016 7.14966 11.2741 7.14966 12.1037V17.3613C7.14966 18.1909 7.63223 18.8634 8.22751 18.8634H15.7725C16.3678 18.8634 16.8503 18.1909 16.8503 17.3613V12.1037C16.8503 11.2741 16.3678 10.6016 15.7725 10.6016Z" stroke="#DEE4E8" stroke-linecap="round" stroke-linejoin="round"/>
<path d="M8.96191 10.6025V8.17197C8.96191 7.3662 9.28201 6.59342 9.85178 6.02365C10.4215 5.45388 11.1943 5.13379 12.0001 5.13379C12.8059 5.13379 13.5787 5.45388 14.1484 6.02365C14.7182 6.59342 15.0383 7.3662 15.0383 8.17197V10.6025" stroke="#DEE4E8" stroke-linecap="round" stroke-linejoin="round"/>
</svg>
