<svg width="21" height="18" viewBox="0 0 21 18" fill="none" xmlns="http://www.w3.org/2000/svg">
<g id="Group 21277">
<path id="Vector" d="M8.94516 1.85092L1.2437 14.3485C1.08491 14.6158 1.0009 14.9188 1.00001 15.2275C0.999118 15.5361 1.08139 15.8396 1.23863 16.1078C1.39588 16.3759 1.62261 16.5994 1.89629 16.7559C2.16996 16.9125 2.48102 16.9966 2.79854 17H18.2015C18.519 16.9966 18.83 16.9125 19.1037 16.7559C19.3774 16.5994 19.6041 16.3759 19.7614 16.1078C19.9186 15.8396 20.0009 15.5361 20 15.2275C19.9991 14.9188 19.9151 14.6158 19.7563 14.3485L12.0548 1.85092C11.8927 1.59116 11.6645 1.3764 11.3922 1.22735C11.1198 1.0783 10.8125 1 10.5 1C10.1875 1 9.88018 1.0783 9.60783 1.22735C9.33549 1.3764 9.10725 1.59116 8.94516 1.85092Z" stroke="#DEE4E8" stroke-linecap="round" stroke-linejoin="round"/>
<path id="Vector_2" d="M10.4502 6V11" stroke="#DEE4E8" stroke-linecap="round" stroke-linejoin="round"/>
<path id="Vector_3" d="M10.4482 14.1025H10.4582" stroke="#DEE4E8" stroke-linecap="round" stroke-linejoin="round"/>
</g>
</svg>
