<svg width="24" height="24" viewBox="0 0 24 24" fill="none" xmlns="http://www.w3.org/2000/svg">
<g clip-path="url(#clip0_7_8)">
<rect width="24" height="24" rx="12" fill="#EC1550"/>
<path d="M21 13.7095L18.3802 16.5284H15.8911C15.756 16.5287 15.6265 16.5865 15.5309 16.6893C15.4354 16.792 15.3816 16.9313 15.3813 17.0765V18.683C15.3799 18.7676 15.3477 18.8483 15.2916 18.9075C15.2354 18.9669 15.1598 19.0001 15.0811 19H13.1806C13.1412 19 13.1021 18.9917 13.0657 18.9755C13.0293 18.9593 12.9962 18.9355 12.9683 18.9055C12.9404 18.8755 12.9183 18.8399 12.9032 18.8007C12.8881 18.7615 12.8803 18.7195 12.8804 18.6771V14.7747L14.4361 13.1019C14.4928 13.0445 14.568 13.0131 14.6458 13.0141C14.7237 13.0152 14.7981 13.0487 14.8534 13.1077L15.5401 13.8461H17.3401L18.5011 12.5986V10.961L17.3116 9.6764H15.7114L9.34989 16.5167H5.6424L3 13.6774V9.84613L5.64519 7.00193H9.26091L10.8285 8.68735C10.8821 8.74757 10.9122 8.82777 10.9122 8.91119C10.9122 8.99462 10.8821 9.0748 10.8285 9.135L9.49594 10.563C9.4449 10.6263 9.37258 10.6653 9.29486 10.6713C9.21714 10.6773 9.14038 10.65 9.08136 10.5953C9.0741 10.5884 9.0669 10.5807 9.05964 10.5738L8.22874 9.68347H6.67749L5.49372 10.9561V12.5693L6.6738 13.8403H8.31669L14.6792 7H18.345L21 9.85487V13.7095Z" fill="white"/>
</g>
<defs>
<clipPath id="clip0_7_8">
<rect width="24" height="24" fill="white"/>
</clipPath>
</defs>
</svg>
