<svg width="47" height="48" viewBox="0 0 47 48" fill="none" xmlns="http://www.w3.org/2000/svg">
<g id="Simplification" clip-path="url(#clip0_0_2170)">
<path id="Vector" d="M0.046875 28.2441C4.26697 28.2441 8.48706 28.2441 12.835 28.2441C12.835 30.7182 12.835 33.1922 12.835 35.7412C11.9786 35.7412 11.1221 35.7412 10.2396 35.7412C10.2396 34.123 10.2396 32.5047 10.2396 30.8375C7.99724 30.8375 5.75483 30.8375 3.44447 30.8375C3.80055 31.823 3.80055 31.823 4.21423 32.7795C4.23978 32.8336 4.26533 32.8876 4.29165 32.9433C5.33185 35.1192 6.72223 37.1072 8.43546 38.8073C8.52379 38.8951 8.6116 38.9833 8.69938 39.0716C9.02545 39.3978 9.35831 39.6988 9.72057 39.9848C9.77202 40.0283 9.8232 40.0722 9.87393 40.1165C11.0906 41.175 12.4916 42.0346 13.9292 42.7579C13.9979 42.7926 13.9979 42.7926 14.068 42.828C14.5462 43.0641 15.0324 43.2631 15.5248 43.474C15.5248 38.4481 15.5248 33.4223 15.5248 28.2441C18.4835 28.2441 21.4423 28.2441 24.4907 28.2441C24.4907 32.4142 24.4907 36.5843 24.4907 40.8807C23.6342 40.8807 22.7777 40.8807 21.8953 40.8807C21.8953 37.5664 21.8953 34.2522 21.8953 30.8375C20.6495 30.8375 19.4037 30.8375 18.1202 30.8375C18.1202 36.159 18.1202 41.4804 18.1202 46.9632C17.8492 46.9331 17.6264 46.9062 17.3698 46.8385C17.3402 46.8307 17.3106 46.8229 17.2801 46.8149C17.1834 46.7891 17.087 46.7628 16.9906 46.7363C16.9402 46.7225 16.9402 46.7225 16.8887 46.7084C15.6726 46.3738 14.4972 45.94 13.3541 45.4072C13.2859 45.376 13.2859 45.376 13.2162 45.3441C11.7058 44.6525 10.2812 43.7803 8.96555 42.7667C8.93991 42.7471 8.91427 42.7274 8.88785 42.7071C8.28545 42.244 7.7109 41.752 7.15459 41.2346C7.07016 41.1563 6.98524 41.0786 6.9003 41.001C6.605 40.7298 6.31783 40.4582 6.05422 40.1555C5.94499 40.0314 5.83267 39.9109 5.71933 39.7905C5.43495 39.4882 5.16444 39.1793 4.90732 38.8532C4.88368 38.8236 4.86005 38.7939 4.8357 38.7634C2.39492 35.7019 0.727799 32.0996 0.046875 28.2441Z" fill="#6CD2FF"/>
<path id="Vector_2" d="M28.2656 22.3496C34.4478 22.3496 40.63 22.3496 46.9996 22.3496C46.9996 23.2054 46.9996 24.0612 46.9996 24.9429C41.6738 24.9429 36.3481 24.9429 30.861 24.9429C30.861 31.058 30.861 37.173 30.861 43.4734C31.7929 43.069 31.7929 43.069 32.7032 42.6254C32.8021 42.5742 32.9016 42.5243 33.0011 42.4744C33.9446 41.9959 34.8294 41.4208 35.6743 40.7858C35.7022 40.7649 35.7302 40.7441 35.7591 40.7227C36.3408 40.2896 36.8847 39.8124 37.4202 39.3241C37.4674 39.2813 37.5146 39.2386 37.5618 39.1959C37.9285 38.8631 38.2849 38.5264 38.6079 38.1504C38.7016 38.0427 38.7982 37.938 38.8949 37.8329C39.1328 37.5691 39.3508 37.2919 39.5674 37.0108C39.6404 36.9164 39.714 36.8226 39.7876 36.7287C41.0351 35.1306 42.0392 33.3182 42.7428 31.4179C42.7621 31.3663 42.7813 31.3146 42.8012 31.2614C42.848 31.1356 42.8947 31.0098 42.9413 30.884C42.9005 30.8838 42.8597 30.8836 42.8177 30.8834C41.826 30.8785 40.8344 30.8734 39.8428 30.868C39.3633 30.8654 38.8838 30.8629 38.4043 30.8605C37.9865 30.8585 37.5687 30.8563 37.1509 30.854C36.9295 30.8527 36.7081 30.8515 36.4868 30.8506C36.2787 30.8496 36.0706 30.8485 35.8625 30.8472C35.7859 30.8467 35.7093 30.8464 35.6327 30.8461C35.5285 30.8457 35.4244 30.845 35.3203 30.8443C35.2618 30.844 35.2034 30.8437 35.1432 30.8434C35.0136 30.8368 35.0136 30.8368 34.9664 30.7897C34.9618 30.7118 34.9604 30.6337 34.9603 30.5557C34.9602 30.5058 34.96 30.4559 34.9599 30.4045C34.96 30.3231 34.96 30.3231 34.9602 30.2401C34.9601 30.1848 34.9601 30.1295 34.96 30.0725C34.96 29.9554 34.9601 29.8382 34.9603 29.721C34.9605 29.541 34.9603 29.3609 34.96 29.1808C34.96 29.0673 34.9601 28.9538 34.9602 28.8403C34.9601 28.786 34.96 28.7317 34.9599 28.6758C34.9601 28.601 34.9601 28.601 34.9603 28.5247C34.9604 28.4805 34.9604 28.4364 34.9604 28.3909C34.9664 28.2907 34.9664 28.2907 35.0136 28.2435C35.1592 28.2389 35.3037 28.2374 35.4492 28.2378C35.4955 28.2378 35.5418 28.2378 35.5895 28.2377C35.7459 28.2376 35.9022 28.2379 36.0586 28.2382C36.1702 28.2382 36.2818 28.2382 36.3934 28.2381C36.6657 28.2381 36.9381 28.2383 37.2104 28.2386C37.5272 28.239 37.844 28.239 38.1608 28.2391C38.7259 28.2392 39.2909 28.2395 39.8559 28.24C40.4049 28.2404 40.9538 28.2407 41.5028 28.2409C41.5535 28.2409 41.5535 28.2409 41.6053 28.241C41.7749 28.241 41.9446 28.2411 42.1142 28.2411C43.5224 28.2416 44.9307 28.2425 46.3389 28.2435C46.3244 28.3399 46.3099 28.4363 46.2952 28.5326C46.2831 28.6131 46.2831 28.6131 46.2707 28.6952C45.6519 32.5133 43.7027 36.1943 41.2425 39.1355C41.2081 39.1769 41.2081 39.1769 41.173 39.2191C40.5151 40.0083 39.8065 40.7968 39.0215 41.4621C38.916 41.5524 38.8143 41.6465 38.712 41.7406C38.4461 41.9803 38.1653 42.1987 37.8821 42.4175C37.8014 42.4804 37.7215 42.5441 37.6418 42.6083C35.1401 44.6172 32.1646 46.0108 29.0708 46.8241C28.9902 46.8453 28.9902 46.8453 28.908 46.8669C28.8582 46.8796 28.8083 46.8922 28.7569 46.9053C28.7131 46.9164 28.6694 46.9275 28.6243 46.939C28.5016 46.9626 28.5016 46.9626 28.2656 46.9626C28.2656 38.8403 28.2656 30.718 28.2656 22.3496Z" fill="#6CD2FF"/>
<path id="Vector_3" d="M28.2188 1.08496C29.8575 1.32509 31.4852 1.95767 32.9849 2.64095C33.0358 2.66411 33.0867 2.68727 33.1391 2.71113C34.9766 3.55435 36.67 4.64996 38.2228 5.94154C38.2703 5.98069 38.3177 6.01983 38.3666 6.06016C38.9699 6.56105 39.5315 7.10364 40.0868 7.65667C40.1308 7.70039 40.1747 7.74411 40.2201 7.78916C40.4607 8.03019 40.6918 8.27559 40.9126 8.53486C40.9591 8.58813 41.0056 8.64137 41.0521 8.69455C43.2004 11.1687 46.1505 15.4647 46.1505 18.9081C43.873 18.9092 41.5954 18.9101 39.3178 18.9106C39.0492 18.9106 38.7806 18.9107 38.512 18.9107C38.4318 18.9108 38.4318 18.9108 38.35 18.9108C37.483 18.911 36.6159 18.9113 35.7489 18.9118C34.8599 18.9122 33.9709 18.9125 33.082 18.9126C32.533 18.9126 31.984 18.9129 31.435 18.9132C31.059 18.9135 30.6831 18.9136 30.3072 18.9135C30.0899 18.9135 29.8727 18.9135 29.6555 18.9138C29.4569 18.914 29.2584 18.914 29.0598 18.9138C28.9877 18.9138 28.9156 18.9139 28.8434 18.914C28.746 18.9142 28.6486 18.9141 28.5511 18.9139C28.4697 18.914 28.4697 18.914 28.3865 18.914C28.266 18.9081 28.266 18.9081 28.2188 18.861C28.2142 18.756 28.2131 18.6508 28.2131 18.5456C28.2131 18.5123 28.2131 18.4789 28.213 18.4446C28.2129 18.332 28.2132 18.2194 28.2135 18.1068C28.2135 18.0265 28.2135 17.9461 28.2134 17.8657C28.2134 17.6468 28.2137 17.4279 28.214 17.209C28.2143 16.9805 28.2144 16.752 28.2144 16.5236C28.2146 16.0905 28.215 15.6575 28.2154 15.2245C28.2161 14.6396 28.2163 14.0547 28.2166 13.4698C28.217 12.5478 28.218 11.6258 28.2188 10.7038C30.6792 10.7038 33.1397 10.7038 35.6746 10.7038C35.6746 11.5596 35.6746 12.4154 35.6746 13.2971C34.0707 13.2971 32.4668 13.2971 30.8142 13.2971C30.8142 14.2774 30.8142 15.2577 30.8142 16.2677C34.7073 16.2677 38.6003 16.2677 42.6114 16.2677C42.0292 14.9879 41.4523 13.7551 40.6767 12.5899C40.6445 12.5413 40.6445 12.5413 40.6117 12.4917C40.1289 11.7657 39.5967 11.079 39.025 10.4209C38.9962 10.3874 38.9674 10.3538 38.9377 10.3192C38.8575 10.2266 38.7764 10.135 38.6947 10.0437C38.6593 10.004 38.6239 9.9642 38.5874 9.92325C38.3212 9.62848 38.0462 9.34363 37.7657 9.06237C37.7326 9.02912 37.6996 8.99588 37.6655 8.96163C37.45 8.74691 37.2271 8.54395 36.9959 8.34626C36.9483 8.30488 36.9007 8.2635 36.8531 8.22212C35.0752 6.70083 33.0668 5.51983 30.9086 4.62131C30.893 5.52378 30.8774 6.42626 30.8614 7.35608C30.0049 7.35608 29.1484 7.35608 28.266 7.35608C28.2579 6.81483 28.2499 6.27357 28.2424 5.73231C28.2419 5.69205 28.2413 5.65179 28.2407 5.6103C28.2199 4.10174 28.2127 2.59367 28.2188 1.08496Z" fill="#6CD2FF"/>
<path id="Vector_4" d="M18.1681 1.08398C18.1681 6.98119 18.1681 12.8784 18.1681 18.9543C17.3116 18.9543 16.4551 18.9543 15.5727 18.9543C15.5571 14.2241 15.5415 9.49389 15.5255 4.62033C13.4415 5.50131 11.5472 6.55707 9.81565 8.01522C9.79099 8.03585 9.76634 8.05648 9.74094 8.07773C9.03403 8.67021 8.32845 9.29178 7.7281 9.99373C7.63571 10.1006 7.5401 10.2041 7.44441 10.308C7.1808 10.6003 6.94053 10.9093 6.70119 11.2215C6.6662 11.267 6.6662 11.267 6.6305 11.3133C5.72758 12.4893 4.96979 13.7545 4.32405 15.0879C4.30985 15.1172 4.29564 15.1464 4.28101 15.1766C4.1142 15.5211 3.96532 15.8632 3.82267 16.2195C7.44323 16.2429 7.44323 16.2429 11.1369 16.2667C11.1369 17.1381 11.1369 18.0094 11.1369 18.9072C7.53973 18.9072 3.94253 18.9072 0.236328 18.9072C0.457121 17.9144 0.457121 17.9144 0.599092 17.4455C0.615287 17.3917 0.631483 17.3379 0.64817 17.2826C1.58072 14.2239 3.08416 11.4069 5.14396 8.95825C5.16428 8.93394 5.18461 8.90962 5.20555 8.88457C5.88327 8.07548 6.60709 7.26263 7.41547 6.58116C7.52013 6.49215 7.62054 6.39902 7.72164 6.30599C7.98487 6.06895 8.26193 5.85248 8.54219 5.6362C8.64111 5.55933 8.7392 5.4815 8.83722 5.40348C9.31997 5.02079 9.81529 4.6686 10.3347 4.33742C10.3927 4.30033 10.3927 4.30033 10.4517 4.26248C11.074 3.86573 11.7104 3.50155 12.3638 3.15864C12.4073 3.13562 12.4507 3.1126 12.4955 3.08888C14.0387 2.27538 16.3774 1.08398 18.1681 1.08398Z" fill="#6CD2FF"/>
<path id="Vector_5" d="M21.8956 6.79004C22.7521 6.79004 23.6085 6.79004 24.491 6.79004C24.491 12.7184 24.491 18.6467 24.491 24.7547C16.4089 24.7547 8.32693 24.7547 0 24.7547C0 23.8989 0 23.0431 0 22.1614C7.22554 22.1614 14.4511 22.1614 21.8956 22.1614C21.8956 17.0888 21.8956 12.0163 21.8956 6.79004Z" fill="#6CD2FF"/>
<path id="Vector_6" d="M24.0518 44.8735C24.4585 45.1657 24.6801 45.5084 24.8033 45.992C24.8813 46.5138 24.7349 46.9523 24.4381 47.3725C24.1904 47.6764 23.8412 47.8884 23.4531 47.9531C22.9675 47.9915 22.547 47.9638 22.1447 47.6707C21.7496 47.3335 21.5044 46.9905 21.4553 46.4624C21.4494 45.904 21.5591 45.4918 21.943 45.0768C22.5163 44.5105 23.3839 44.4577 24.0518 44.8735Z" fill=""/>
<path id="Vector_7" d="M12.2577 10.9238C12.6954 11.2422 12.9323 11.6316 13.0245 12.1645C13.0633 12.5984 12.9423 13.034 12.6853 13.3874C12.5108 13.5906 12.315 13.734 12.0807 13.8619C12.0523 13.8779 12.0239 13.894 11.9946 13.9105C11.6137 14.0889 11.1142 14.0572 10.7211 13.9356C10.3122 13.7632 9.94925 13.4211 9.76848 13.0132C9.60196 12.514 9.60865 12.0122 9.83705 11.5353C10.0907 11.1001 10.4186 10.8422 10.904 10.7116C11.3885 10.6057 11.8316 10.6571 12.2577 10.9238Z" fill="#6CD2FF"/>
<path id="Vector_8" d="M24.2548 0.402377C24.559 0.679514 24.7813 1.09646 24.8213 1.50896C24.8269 2.06238 24.6882 2.51808 24.3022 2.9235C24.1681 3.0334 24.029 3.12244 23.8775 3.20641C23.8496 3.22251 23.8216 3.23862 23.7929 3.25521C23.435 3.42492 22.9557 3.40509 22.5802 3.3031C22.1215 3.12196 21.8581 2.87769 21.6124 2.45198C21.5962 2.42403 21.5799 2.39607 21.5632 2.36726C21.3944 2.00925 21.4145 1.53328 21.514 1.15735C21.7099 0.655325 21.9851 0.384796 22.4618 0.141572C22.6122 0.0796859 22.6122 0.0796859 22.745 0.0472694C22.7926 0.0355994 22.8403 0.0239295 22.8895 0.0119059C23.3901 -0.0198518 23.8552 0.0960739 24.2548 0.402377Z" fill="#6CD2FF"/>
<path id="Vector_9" d="M36.5334 33.9345C36.8884 34.2261 37.1895 34.5592 37.2427 35.0309C37.2841 35.5915 37.2187 36.0146 36.8549 36.46C36.5094 36.8229 36.0735 37.0146 35.5749 37.0288C35.131 37.0246 34.7219 36.8525 34.4013 36.5471C34.0511 36.1819 33.8756 35.7785 33.882 35.2694C33.9246 34.7825 34.1268 34.3657 34.4837 34.0321C35.1172 33.5375 35.8466 33.5712 36.5334 33.9345Z" fill="#6CD2FF"/>
<path id="Vector_10" d="M22.2259 44.8408C22.2571 44.8564 22.2882 44.8719 22.3203 44.888C22.1334 45.0747 21.9466 45.2614 21.754 45.4538C21.754 45.2377 21.8916 45.1323 22.0372 44.9823C22.1492 44.8909 22.1492 44.8909 22.2259 44.8408Z" fill="#6CD2FF"/>
<path id="Vector_11" d="M10.3815 10.9395C10.4126 10.955 10.4438 10.9706 10.4759 10.9866C10.3357 11.1266 10.1956 11.2667 10.0512 11.411C10.02 11.3954 9.98888 11.3798 9.95679 11.3638C10.0008 11.3106 10.0451 11.2576 10.0895 11.2047C10.1141 11.1751 10.1388 11.1456 10.1642 11.1152C10.2399 11.0338 10.2399 11.0338 10.3815 10.9395Z" fill="#6CD2FF"/>
<path id="Vector_12" d="M22.1787 0.283203C22.2099 0.298763 22.241 0.314323 22.2731 0.330354C22.133 0.470394 21.9928 0.610433 21.8484 0.754716C21.8173 0.739156 21.7861 0.723596 21.754 0.707565C21.8857 0.543125 22.0019 0.401007 22.1787 0.283203Z" fill="#6CD2FF"/>
</g>
<defs>
<clipPath id="clip0_0_2170">
<rect width="47" height="48" fill="white"/>
</clipPath>
</defs>
</svg>
